<?xml version="1.0" encoding="UTF-8" standalone="no"?>
<svg
   xmlns:dc="http://purl.org/dc/elements/1.1/"
   xmlns:cc="http://creativecommons.org/ns#"
   xmlns:rdf="http://www.w3.org/1999/02/22-rdf-syntax-ns#"
   xmlns:svg="http://www.w3.org/2000/svg"
   xmlns="http://www.w3.org/2000/svg"
   xmlns:sodipodi="http://sodipodi.sourceforge.net/DTD/sodipodi-0.dtd"
   xmlns:inkscape="http://www.inkscape.org/namespaces/inkscape"
   width="375"
   height="194"
   viewBox="0 0 375 194"
   fill="none"
   version="1.1"
   id="svg414"
   sodipodi:docname="Group 26.svg">
  <metadata
     id="metadata418">
    <rdf:RDF>
      <cc:Work
         rdf:about="">
        <dc:format>image/svg+xml</dc:format>
        <dc:type
           rdf:resource="http://purl.org/dc/dcmitype/StillImage" />
      </cc:Work>
    </rdf:RDF>
  </metadata>
  <sodipodi:namedview
     pagecolor="#ffffff"
     bordercolor="#666666"
     borderopacity="1"
     objecttolerance="10"
     gridtolerance="10"
     guidetolerance="10"
     inkscape:pageopacity="0"
     inkscape:pageshadow="2"
     inkscape:window-width="640"
     inkscape:window-height="480"
     id="namedview416" />
  <path
     d="M-46.9661 148.096C-46.9661 148.096 -61.4772 184.992 18.2282 182.487C97.9337 179.981 97.0333 174.548 147.346 184.146C197.658 193.744 229.011 197.551 267.884 190.002C306.757 182.454 307.763 183.723 357.122 183.723C406.481 183.723 423.375 151.383 424.647 146.958C426.182 141.752 422.634 124.671 415.537 124.638C363.371 124.248 40.2597 122.589 14.7858 126.916C-7.08688 130.625 -33.4082 142.988 -46.0658 146.274"
     fill="#02499B"
     id="path2" />
  <path
     d="M-46.9661 148.096C-46.9661 148.096 -61.4772 184.992 18.2282 182.487C97.9337 179.981 97.0333 174.548 147.346 184.146C197.658 193.744 229.011 197.551 267.884 190.002C306.757 182.454 307.763 183.723 357.122 183.723C406.481 183.723 423.375 151.383 424.647 146.958C426.182 141.752 422.634 124.671 415.537 124.638C363.371 124.248 40.2597 122.589 14.7858 126.916C-7.08688 130.625 -33.4082 142.988 -46.0658 146.274"
     fill="white"
     fill-opacity="0.1"
     id="path4" />
  <path
     d="M173.678 110.88C174.69 109.57 175.345 108.052 175.583 106.415C175.851 104.42 176.565 101.92 178.381 100.193C181.15 97.5733 181.537 86.4992 181.596 82.3911C181.626 80.8431 181.864 79.2951 182.311 77.8364C183.144 75.2465 184.811 71.6445 188.086 69.9179C191.42 68.1615 202.077 67.4172 205.173 70.0072C211.484 75.2763 210.621 82.2125 210.71 83.3139C211.187 88.4937 210.889 92.2744 213.538 95.549C216.188 98.8236 219.165 102.783 218.391 106.802C217.617 110.821 224.553 116.774 216.962 119.245C209.371 121.716 201.601 123.443 193.147 122.758C185.645 122.163 175.404 120.942 173.38 115.971C172.427 113.529 172.933 111.892 173.678 110.88Z"
     fill="#E9EDFA"
     id="path6" />
  <path
     d="M175.583 110.255C175.94 109.749 176.387 109.005 177.19 108.588C177.994 108.171 179.631 107.04 187.639 110.314C199.071 115.018 208.478 109.273 209.371 109.153C210.264 109.034 218.331 106.504 218.123 111.803C217.914 117.102 208.359 119.96 205.471 120.079C202.583 120.198 190.557 121.329 184.633 119.632C178.709 117.935 176.446 115.643 176.029 115.077C175.583 114.452 174.094 112.368 175.583 110.255Z"
     fill="#BAC5F4"
     id="path8" />
  <path
     d="M176.357 148.716H176.923C177.935 148.746 178.798 147.913 178.798 146.901C178.798 146.871 178.798 146.871 178.798 146.841L178.738 144.162C178.738 143.864 178.53 143.596 178.262 143.477L178.084 143.418C177.697 143.269 177.488 142.822 177.667 142.435C177.726 142.286 177.816 142.167 177.935 142.108C178.054 142.018 178.203 141.959 178.322 141.899C179.572 141.423 182.221 139.905 189.187 139.19C192.998 138.803 194.933 138.684 195.945 138.655C196.362 138.625 196.689 138.297 196.689 137.851C196.689 137.791 196.689 137.732 196.659 137.672C196.57 137.315 196.213 137.077 195.826 137.136C193.385 137.434 184.692 138.476 181.834 139.161C180.167 139.577 178.56 140.262 177.071 141.155C176.506 141.512 176.119 142.108 176.059 142.792C176.029 143.031 175.91 143.239 175.732 143.358C175.434 143.566 175.136 143.715 174.809 143.834C174.333 143.983 174.333 145.621 174.452 146.99C174.481 147.913 175.315 148.687 176.357 148.716Z"
     fill="#A2B7ED"
     id="path10" />
  <path
     d="M218.54 148.716H218.123C217.021 148.746 216.099 147.853 216.099 146.752C216.099 146.722 216.099 146.692 216.099 146.662L216.158 144.132C216.158 143.834 216.337 143.566 216.634 143.447L216.813 143.388C217.2 143.239 217.408 142.792 217.23 142.405C217.17 142.286 217.081 142.167 216.962 142.078C216.843 141.989 216.694 141.929 216.575 141.87C215.325 141.393 212.705 139.875 205.798 139.161C202.048 138.774 200.113 138.655 199.13 138.625C198.713 138.595 198.386 138.268 198.386 137.821C198.386 137.761 198.386 137.702 198.416 137.642C198.505 137.285 198.862 137.047 199.249 137.107C201.69 137.404 210.294 138.446 213.092 139.131C214.759 139.548 216.337 140.232 217.795 141.125C218.361 141.483 218.748 142.078 218.808 142.763C218.837 143.001 218.956 143.209 219.135 143.328C219.403 143.507 219.701 143.686 220.028 143.805C220.504 143.953 220.475 145.621 220.385 146.99C220.356 147.913 219.552 148.687 218.54 148.716Z"
     fill="#A2B7ED"
     id="path12" />
  <path
     d="M196.332 123.978L196.272 146.514C196.272 146.811 196.034 147.049 195.737 147.049H195.617C195.32 147.049 195.082 147.288 195.082 147.585C195.082 147.585 195.082 147.585 195.082 147.615L195.171 151.425C195.201 152.348 195.945 153.122 196.898 153.122L198.088 153.152C199.071 153.182 199.904 152.378 199.904 151.396C199.904 151.366 199.904 151.336 199.904 151.277L199.755 147.585C199.755 147.288 199.517 147.079 199.22 147.079C198.922 147.079 198.684 146.841 198.684 146.543L198.743 123.443C198.743 123.145 198.505 122.907 198.207 122.907H196.838C196.54 122.907 196.302 123.145 196.302 123.443C196.302 123.443 196.302 123.443 196.302 123.472L196.332 123.978Z"
     fill="#A2B7ED"
     id="path14" />
  <path
     d="M196.362 140.322C196.362 140.322 178.143 147.645 175.285 150.086C172.427 152.527 171.951 154.045 172.07 154.7C172.07 154.76 172.189 154.819 172.308 154.849C173.023 155.057 173.499 155.712 173.469 156.427L173.41 160.267C173.41 160.862 172.904 161.339 172.338 161.339H170.284C169.689 161.339 169.212 160.862 169.183 160.267L169.123 156.456C169.093 155.653 169.689 154.938 170.492 154.819H170.522C170.522 154.819 171.237 151.932 172.338 150.949C173.44 149.967 175.375 147.764 182.995 144.43C190.616 141.096 196.332 139.012 196.332 139.012L196.362 140.322Z"
     fill="#BAC5F4"
     id="path16" />
  <path
     d="M198.654 140.054C198.654 140.292 198.803 140.53 199.011 140.619C201.512 141.691 216.039 147.972 218.54 150.205C221.249 152.646 221.695 154.164 221.576 154.819C221.546 154.968 221.159 155.028 220.772 155.057C220.445 155.087 220.207 155.355 220.207 155.682L220.266 159.761C220.266 160.713 221.07 161.487 222.023 161.487H222.529C223.481 161.487 224.255 160.713 224.285 159.761L224.345 155.712C224.345 155.415 224.136 155.147 223.839 155.117L223.392 155.057C223.154 155.028 222.975 154.849 222.916 154.611C222.707 153.807 222.112 151.872 221.278 151.098C220.236 150.116 218.391 147.913 211.187 144.579C205.65 142.048 201.214 140.232 199.458 139.518C199.16 139.399 198.803 139.518 198.684 139.816C198.684 139.905 198.684 139.964 198.654 140.054Z"
     fill="#BAC5F4"
     id="path18" />
  <path
     d="M98.8383 157.35L99.136 105.551H105.983V157.647L98.8383 157.35Z"
     fill="white"
     id="path20" />
  <path
     d="M256.912 104.629L257.21 157.945H263.163L263.282 104.867L256.912 104.629Z"
     fill="white"
     id="path22" />
  <path
     d="M78 99.2999V105.551L282.811 104.956V99.5976L78 99.2999Z"
     fill="white"
     id="path24" />
  <path
     d="M78 99.2999L92.5868 94.8345L266.14 95.1322L282.811 99.5976L78 99.2999Z"
     fill="#BAC5F4"
     id="path26" />
  <path
     d="M171.028 97.5733L174.452 95.4894L190.259 95.4001L187.878 97.4244L171.028 97.5733Z"
     fill="#F8F8FF"
     id="path28" />
  <path
     d="M92.2891 83.7902C92.2891 83.7902 89.6992 83.6712 89.3717 84.5047C89.0443 85.3382 89.9671 96.71 90.3839 97.3947C90.8007 98.0794 94.9088 98.258 96.0698 98.258C96.0698 98.258 100.386 97.871 100.595 97.5733C100.803 97.2756 103.72 85.5168 102.768 83.9391C101.815 82.3613 92.4379 83.82 92.4379 83.82"
     fill="#E9EDFC"
     id="path30" />
  <path
     d="M89.1634 86.4695C89.1634 86.4695 97.201 87.0946 98.1536 86.8267C99.1062 86.5588 98.7788 84.1475 98.7788 84.1475L102.768 83.9689C102.768 83.9689 102.768 86.2909 102.5 86.5588C102.202 86.916 101.964 87.3328 101.815 87.7793C101.815 87.9281 100.118 97.7519 100.118 97.7519C100.118 97.7519 97.5285 98.1389 97.201 98.1092C96.7842 98.0496 98.2727 89.9524 98.2727 89.3868C98.2727 88.8212 98.2727 87.7495 97.8559 87.7495C97.4392 87.7495 89.5801 87.9877 89.5206 87.0946C89.4908 86.8862 89.342 86.6481 89.1634 86.4695Z"
     fill="#BAC4F6"
     id="path32" />
  <path
     d="M92.3487 84.0582C92.3487 84.0582 90.116 82.4804 88.9252 82.3316C87.7345 82.1827 86.3353 82.0339 85.1445 81.8553C83.9538 81.6766 82.4356 81.1408 82.4653 80.4263C82.4951 79.7417 82.644 79.3844 83.3286 78.9974C83.924 78.6104 84.5789 78.3723 85.2934 78.283C85.8292 78.2234 91.1877 79.6226 93.4203 82.9567L94.3134 84.0582H92.3487Z"
     fill="#BAC4F6"
     id="path34" />
  <path
     d="M84.5789 80.1584C84.5789 80.1584 86.633 80.1286 87.7642 80.4859C88.6573 80.8133 89.4908 81.2003 90.3243 81.6766L93.6882 84.0284"
     fill="#BAC4F6"
     id="path36" />
  <path
     d="M84.5789 80.1584C84.5789 80.1584 86.633 80.1286 87.7642 80.4859C88.6573 80.8133 89.4908 81.2003 90.3243 81.6766L93.6882 84.0284"
     stroke="white"
     stroke-width="0.223268"
     stroke-miterlimit="10"
     stroke-linecap="round"
     id="path38" />
  <path
     d="M94.7004 83.9689C94.7004 83.9689 92.0807 80.4263 91.0686 79.444C90.0565 78.4318 88.8657 77.3006 87.8833 76.2587C86.9009 75.2168 85.6804 73.7283 86.1865 73.1032C86.6926 72.478 87.0796 72.0612 88.0322 72.2101C88.7764 72.2994 89.4908 72.5673 90.116 72.9841C90.6518 73.3115 95.3851 77.8364 96.0698 83.0162L96.7545 84.0582L94.7004 83.9689Z"
     fill="#BAC4F6"
     id="path40" />
  <path
     d="M88.568 74.2939C88.568 74.2939 90.5923 75.5144 91.3961 76.6754C92.1403 77.7769 93.331 79.7119 93.331 79.7119L94.6706 83.433"
     stroke="white"
     stroke-width="0.223268"
     stroke-miterlimit="10"
     stroke-linecap="round"
     id="path42" />
  <path
     d="M96.0102 84.1177C96.0102 84.1177 92.9738 77.509 92.4082 76.1991C91.8426 74.8893 89.5206 72.9246 88.9848 71.5849C88.4787 70.2453 88.1512 69.2927 88.6871 68.5485C89.2229 67.8043 90.622 67.2089 91.5151 67.6554C92.3487 68.0722 93.4501 69.3225 93.9264 69.9476C94.2836 70.4537 96.7842 79.4142 96.5759 81.498L97.0522 84.1475L96.0102 84.1177Z"
     fill="#E9EDFC"
     id="path44" />
  <path
     d="M90.622 70.1263C90.622 70.1263 92.3784 72.3887 92.9143 73.6985C93.5096 75.187 94.105 78.015 94.0157 77.5685L95.8316 83.7009"
     stroke="white"
     stroke-width="0.223268"
     stroke-miterlimit="10"
     stroke-linecap="round"
     id="path46" />
  <path
     d="M94.3432 84.0879C94.3432 84.0879 91.6639 81.0217 90.3541 80.4263C89.0443 79.831 87.5558 79.176 86.2758 78.5211C84.9957 77.8662 83.4775 76.7945 83.7156 76.1396C83.9835 75.4847 84.2515 75.2168 85.1743 75.0977C85.9781 74.9488 86.8116 74.9786 87.6154 75.1572C88.2107 75.3061 93.8073 78.6997 95.2362 82.7186L95.8912 84.1177L94.3432 84.0879Z"
     fill="#E9EDFC"
     id="path48" />
  <path
     d="M86.1865 76.735C86.1865 76.735 88.5084 77.509 89.6694 78.283C90.5327 78.9379 91.3663 79.6226 92.17 80.3966L94.7302 84.1475"
     stroke="white"
     stroke-width="0.223268"
     stroke-miterlimit="10"
     stroke-linecap="round"
     id="path50" />
  <path
     d="M101.339 84.1475C101.339 84.1475 103.78 82.659 105.06 82.5102C106.34 82.3613 107.829 82.2422 109.138 82.0636C110.448 81.885 112.056 81.3789 112.026 80.724C111.996 80.0691 111.847 79.7416 111.073 79.3546C110.418 78.9974 109.704 78.7593 108.96 78.67C108.394 78.6104 102.559 79.95 100.148 83.1353L99.1658 84.1772L101.339 84.1475Z"
     fill="#BAC4F6"
     id="path52" />
  <path
     d="M109.734 80.4561C109.734 80.4561 107.501 80.4263 106.281 80.7836C105.328 81.0813 104.405 81.4683 103.512 81.9148L100.267 84.0879"
     fill="#BAC4F6"
     id="path54" />
  <path
     d="M109.734 80.4561C109.734 80.4561 107.501 80.4263 106.281 80.7836C105.328 81.0813 104.405 81.4683 103.512 81.9148L100.267 84.0879"
     stroke="white"
     stroke-width="0.223268"
     stroke-miterlimit="10"
     stroke-linecap="round"
     id="path56" />
  <path
     d="M98.7788 84.0879C98.7788 84.0879 101.607 80.6943 102.708 79.7417C103.81 78.7891 105.09 77.6876 106.161 76.7052C107.233 75.7228 108.543 74.2939 108.007 73.6986C107.471 73.1032 107.055 72.7162 106.013 72.8352C105.209 72.8948 104.465 73.1627 103.78 73.5795C103.214 73.9069 98.0941 78.2234 97.3498 83.1651L96.6056 84.1772L98.7788 84.0879Z"
     fill="#BAC4F6"
     id="path58" />
  <path
     d="M105.417 74.8298C105.417 74.8298 103.214 75.9908 102.351 77.0922C101.547 78.1341 100.237 80.0096 100.237 80.0096L98.7788 83.5521"
     stroke="white"
     stroke-width="0.223268"
     stroke-miterlimit="10"
     stroke-linecap="round"
     id="path60" />
  <path
     d="M97.3796 84.2368C97.3796 84.2368 100.684 77.9257 101.279 76.6754C101.875 75.4251 104.405 73.5497 104.971 72.2696C105.536 70.9896 105.894 70.0667 105.298 69.382C104.703 68.6973 103.185 68.102 102.232 68.5187C101.309 68.9057 100.148 70.0965 99.6123 70.7216C99.1955 71.1979 96.5163 79.7714 96.7247 81.7659L96.2186 84.2963L97.3796 84.2368Z"
     fill="#E9EDFC"
     id="path62" />
  <path
     d="M97.0522 84.1475C97.0522 84.1475 97.3201 77.9853 97.9452 75.9908C98.362 74.6511 98.7788 72.4185 99.3444 71.1682C99.91 69.9179 99.0467 68.2508 98.4811 67.5364C97.9155 66.8219 96.3972 66.9707 95.4149 67.3875C94.492 67.7745 93.986 69.0546 93.8669 69.7393C93.7776 70.3644 95.9507 77.7769 95.7126 80.5157L95.8912 84.207L97.0522 84.1475Z"
     fill="#BAC4F6"
     id="path64" />
  <path
     d="M103.185 70.8705C103.185 70.8705 101.309 73.0139 100.714 74.2939C100.059 75.7228 99.4337 78.4318 99.523 77.9853L97.3796 83.9986"
     stroke="white"
     stroke-width="0.223268"
     stroke-miterlimit="10"
     stroke-linecap="round"
     id="path66" />
  <path
     d="M99.1955 84.207C99.1955 84.207 102.113 81.2897 103.512 80.724C104.911 80.1584 106.548 79.5333 107.918 78.9081C109.287 78.283 110.954 77.2708 110.686 76.6457C110.418 76.0205 110.121 75.7824 109.109 75.6633C108.245 75.5442 107.352 75.5442 106.489 75.7229C105.834 75.8717 99.7909 79.0868 98.2429 82.927L97.5285 84.2368L99.1955 84.207Z"
     fill="#E9EDFC"
     id="path68" />
  <path
     d="M107.977 77.1517C107.977 77.1517 105.477 77.896 104.227 78.6104C103.304 79.2058 102.381 79.8905 101.547 80.6049L98.7192 83.7605"
     stroke="white"
     stroke-width="0.223268"
     stroke-miterlimit="10"
     stroke-linecap="round"
     id="path70" />
  <path
     d="M96.4568 68.6973C96.4568 68.6973 96.9629 73.9664 96.6652 75.3954C96.5461 75.9907 96.6056 79.7119 96.6056 79.7119L96.5163 83.8498"
     stroke="white"
     stroke-width="0.223268"
     stroke-miterlimit="10"
     stroke-linecap="round"
     id="path72" />
  <path
     d="M178.024 66.3456H145.308V92.0363H178.024V66.3456Z"
     fill="white"
     id="path74" />
  <path
     d="M160.966 81.3492C162.051 81.3492 162.931 80.4695 162.931 79.3844C162.931 78.2993 162.051 77.4197 160.966 77.4197C159.881 77.4197 159.002 78.2993 159.002 79.3844C159.002 80.4695 159.881 81.3492 160.966 81.3492Z"
     fill="#F5F5FC"
     id="path76" />
  <path
     d="M158.912 91.4111C158.912 91.4111 159.746 93.5842 158.793 94.1796C157.841 94.775 152.065 97.0672 152.065 97.0672C152.065 97.0672 151.649 97.7519 152.661 97.9603C153.584 98.1687 165.313 97.9901 167.843 97.9603C168.2 97.9901 168.528 97.7817 168.677 97.4542C168.736 97.2458 168.647 97.0077 168.2 96.8588C167.426 96.5909 164.568 95.0132 163.318 94.3582C162.872 94.1201 162.752 93.6735 162.663 93.227C162.514 92.5423 162.425 91.7981 162.901 91.6493C163.646 91.4111 158.942 91.7088 158.942 91.7088"
     fill="white"
     id="path78" />
  <path
     d="M134.115 63.6961L219.194 63.577L219.046 49.3474L129.292 50.0321L129.232 63.6961H134.115Z"
     fill="#E9EDFA"
     id="path80" />
  <path
     d="M176.684 51.9076V61.7016L216.724 61.5528V52.0267L176.684 51.9076Z"
     fill="#BAC5F4"
     id="path82" />
  <path
     d="M133.876 51.9076V61.7016L173.916 61.5528V52.0267L133.876 51.9076Z"
     fill="#BAC5F4"
     id="path84" />
  <path
     d="M133.876 54.2593H135.99V61.7314L133.876 61.7016V54.2593Z"
     fill="white"
     id="path86" />
  <path
     d="M136.02 55.5692H137.419L137.479 61.7016L135.99 61.7314L136.02 55.5692Z"
     fill="#F5F5FC"
     id="path88" />
  <path
     d="M171.326 54.1998H172.546V61.6718L171.326 61.6421V54.1998Z"
     fill="white"
     id="path90" />
  <path
     d="M172.576 55.5096H173.975L174.035 61.6421L172.546 61.6718L172.576 55.5096Z"
     fill="#F5F5FC"
     id="path92" />
  <path
     d="M137.538 54.6166H138.937L138.997 61.7016L137.508 61.7314L137.538 54.6166Z"
     fill="#F5F5FC"
     id="path94" />
  <path
     d="M138.907 56.3134L139.622 55.7478L143.283 61.0467L142.48 61.7016L138.907 56.3134Z"
     fill="white"
     id="path96" />
  <path
     d="M155.935 61.6718H164.717L164.658 60.6597L155.935 60.7192V61.6718Z"
     fill="white"
     id="path98" />
  <path
     d="M157.394 60.6894H166.176L166.146 59.7071L157.394 59.7666V60.6894Z"
     fill="#E9EDFA"
     id="path100" />
  <path
     d="M178.083 53.9021H179.304L179.334 61.7611L178.083 61.7314V53.9021Z"
     fill="white"
     id="path102" />
  <path
     d="M179.334 55.5692H180.733L180.792 61.7016L179.334 61.7314V55.5692Z"
     fill="#F5F5FC"
     id="path104" />
  <path
     d="M214.044 54.17H215.265L215.295 61.6123H214.044V54.17Z"
     fill="white"
     id="path106" />
  <path
     d="M215.265 55.3608H216.724L216.783 61.5528L215.295 61.5825L215.265 55.3608Z"
     fill="#F5F5FC"
     id="path108" />
  <path
     d="M212.645 55.986H214.044L214.104 61.6123L212.616 61.6421L212.645 55.986Z"
     fill="#F5F5FC"
     id="path110" />
  <path
     d="M176.655 54.6166H178.083L178.113 61.7314L176.655 61.7611V54.6166Z"
     fill="#F5F5FC"
     id="path112" />
  <path
     d="M191.241 56.3432L191.956 55.7478L195.588 61.0765L194.814 61.7016L191.241 56.3432Z"
     fill="white"
     id="path114" />
  <path
     d="M185.288 61.6718H194.069L194.01 60.6895L185.288 60.749V61.6718Z"
     fill="white"
     id="path116" />
  <path
     d="M184.811 60.749H193.563L193.534 59.7666L184.811 59.8261V60.749Z"
     fill="#E9EDFA"
     id="path118" />
  <path
     d="M219.135 48.6032L219.046 37.2017H298.827L299.005 64.4701L219.194 65.125L219.135 49.6451"
     fill="#E9EDFA"
     id="path120" />
  <path
     d="M162.306 41.9945C162.306 41.9945 161.532 41.7266 161.472 41.548C161.413 41.3693 161.145 40.2679 161.651 40.2679H165.997C165.997 40.2679 166.712 41.4289 165.819 41.667C164.926 41.9052 165.7 42.3815 165.938 42.3815C166.176 42.3815 166.771 42.3815 166.89 42.7089C167.009 43.0364 167.009 49.7344 167.009 49.7344H160.549V43.215C160.549 42.828 160.847 42.5303 161.234 42.5006H161.264C161.978 42.5006 162.484 42.3219 162.306 41.9945Z"
     fill="#E9EDFA"
     id="path122" />
  <path
     d="M166.057 44.5844H161.532V47.3827H166.057V44.5844Z"
     fill="white"
     id="path124" />
  <path
     d="M169.689 41.9945C169.689 41.9945 168.915 41.7266 168.855 41.548C168.796 41.3693 168.528 40.2679 169.034 40.2679H173.38C173.38 40.2679 174.094 41.4289 173.201 41.667C172.308 41.9052 173.082 42.3815 173.32 42.3815C173.559 42.3815 174.154 42.3815 174.273 42.7089C174.392 43.0364 174.392 49.7344 174.392 49.7344H167.932V43.215C167.932 42.828 168.23 42.5303 168.617 42.5006H168.647C169.391 42.5006 169.897 42.3219 169.689 41.9945Z"
     fill="#BAC5F4"
     id="path126" />
  <path
     d="M173.44 44.5844H168.915V47.3827H173.44V44.5844Z"
     fill="white"
     id="path128" />
  <path
     d="M177.309 41.9052C177.309 41.9052 176.535 41.6373 176.476 41.4587C176.416 41.28 176.148 40.1786 176.655 40.1786H181.001C181.001 40.1786 181.715 41.3396 180.822 41.5777C179.929 41.8159 180.703 42.2922 180.941 42.2922C181.179 42.2922 181.775 42.2922 181.894 42.6196C182.013 42.9471 182.013 49.6451 182.013 49.6451H175.553V43.1257C175.553 42.7387 175.851 42.441 176.238 42.4113H176.268C176.982 42.4113 177.518 42.2326 177.309 41.9052Z"
     fill="#E9EDFA"
     id="path130" />
  <path
     d="M181.06 44.4951H176.535V47.2934H181.06V44.4951Z"
     fill="white"
     id="path132" />
  <path
     d="M258.728 39.9702H221.874V62.4756H258.728V39.9702Z"
     fill="#BAC5F4"
     id="path134" />
  <path
     d="M262.687 53.4258C263.575 53.4258 264.295 52.7061 264.295 51.8183C264.295 50.9305 263.575 50.2108 262.687 50.2108C261.799 50.2108 261.08 50.9305 261.08 51.8183C261.08 52.7061 261.799 53.4258 262.687 53.4258Z"
     fill="#BAC5F4"
     id="path136" />
  <path
     d="M246.493 54.7654C246.493 54.7654 245.719 54.4975 245.659 54.3189C245.6 54.1403 245.332 53.0388 245.838 53.0388H250.184C250.184 53.0388 250.899 54.1998 250.005 54.438C249.112 54.6761 249.886 55.1524 250.125 55.1524C250.363 55.1524 250.958 55.1524 251.077 55.4799C251.196 55.8073 251.196 62.5054 251.196 62.5054H244.736V55.986C244.736 55.599 245.034 55.3013 245.421 55.2715H245.451C246.165 55.2715 246.671 55.0929 246.493 54.7654Z"
     fill="white"
     id="path138" />
  <path
     d="M250.214 57.3553H245.689V60.1536H250.214V57.3553Z"
     fill="#F5F5FC"
     id="path140" />
  <path
     d="M303.763 150.229C303.763 150.229 305.638 140.078 295.785 134.63C285.931 129.183 285.485 129.242 283.55 128.647C282.418 128.26 281.287 129.064 282.567 130.701C283.847 132.338 283.133 132.755 285.723 133.469C288.313 134.184 288.7 137.339 290.01 138.113C291.29 138.887 292.421 139.096 296.38 140.822C299.982 142.37 303.019 146.746 303.019 148.294C303.019 149.842 306.531 150.348 306.531 150.348L303.763 150.229Z"
     fill="url(#paint0_linear_33_371)"
     id="path142" />
  <path
     d="M303.406 148.8C303.406 148.8 305.906 139.453 297.303 134.392C288.7 129.332 285.663 129.391 283.966 128.796C282.984 128.438 285.663 129.659 286.794 131.147C287.926 132.636 287.628 132.308 289.652 133.44C292.004 134.72 292.957 136 294.356 136.238C296.35 136.625 295.755 138.709 299.208 140.257C302.334 141.686 302.721 145.466 302.721 146.895C302.721 148.324 305.787 148.8 305.787 148.8H303.406Z"
     fill="url(#paint1_linear_33_371)"
     id="path144" />
  <path
     d="M312.098 147.431L313.08 146.508C313.557 146.091 314.122 145.764 314.748 145.585C317.784 144.782 327.37 141.775 331.329 134.541C331.359 134.482 331.329 134.392 331.269 134.362H331.24C331.21 134.362 331.21 134.333 331.18 134.333C329.87 134.243 323.053 134.124 313.944 141.894C313.795 142.013 313.616 142.192 313.497 142.341C313.259 142.668 312.902 143.204 312.723 143.502C312.485 143.918 312.961 144.633 312.336 145.228C311.711 145.824 310.312 147.401 310.312 147.401L311.443 148.235L312.098 147.431Z"
     fill="url(#paint2_linear_33_371)"
     id="path146" />
  <path
     d="M306.889 146.836C306.889 146.836 309.508 123.467 302.364 116.114C295.785 109.356 295.695 115.578 295.725 116.62C295.725 116.709 295.755 116.799 295.785 116.888C297.333 119.776 297.869 123.11 297.303 126.325C296.618 129.719 301.471 129.272 301.887 132.606C302.304 135.94 304.001 141.061 303.822 143.442C303.644 145.794 303.644 148.086 303.644 148.086L306.263 148.175L306.889 146.836Z"
     fill="url(#paint3_linear_33_371)"
     id="path148" />
  <path
     d="M306.859 146.925C306.889 146.865 306.889 146.806 306.918 146.776C307.067 145.258 309.27 123.229 302.393 116.114C295.874 109.386 295.785 115.489 295.814 116.59C295.844 116.709 295.904 116.858 295.963 116.948C296.44 117.662 298.583 120.699 300.518 120.371C305.787 119.418 301.143 125.789 304.001 129.183C306.293 131.862 305.519 141.12 305.37 143.502C305.251 144.841 305.043 146.151 304.715 147.461C304.656 147.788 304.864 148.116 305.192 148.175C305.221 148.175 305.221 148.175 305.251 148.175C305.311 148.175 305.341 148.205 305.37 148.205H305.847C306.144 148.235 306.382 148.086 306.531 147.818L306.859 146.925Z"
     fill="url(#paint4_linear_33_371)"
     id="path150" />
  <path
     d="M309.449 148.265C309.449 148.265 309.925 141.775 313.706 137.845C314.748 136.774 316.087 136 317.576 135.672C318.707 135.404 320.553 134.511 322.16 131.475C322.16 131.475 325.197 127.158 328.263 125.849C331.299 124.539 328.263 124.39 328.263 124.39C328.263 124.39 319.54 126.057 313.974 131.147C313.616 131.475 313.259 131.773 312.842 132.011C311.384 132.993 307.395 136.744 307.573 147.61L309.449 148.265Z"
     fill="url(#paint5_linear_33_371)"
     id="path152" />
  <path
     d="M317.01 147.759C317.01 147.759 317.129 146.985 316.087 146.985C315.164 147.014 299.804 146.895 299.804 146.895C299.804 146.895 299.089 146.895 299.149 147.431C299.208 147.967 301.53 160.768 301.739 161.065C301.828 161.214 302.006 161.363 302.185 161.393C302.483 161.482 313.259 161.423 313.259 161.423C313.527 161.393 313.706 161.184 313.735 160.916C313.706 160.946 317.04 147.907 317.01 147.759Z"
     fill="url(#paint6_linear_33_371)"
     id="path154" />
  <path
     d="M64.6108 153.249L63.8368 153.219L59.8776 153.249C59.8776 153.249 59.0142 157.298 58.5379 158.995C58.5082 159.114 58.4189 159.382 58.3593 159.59C58.2998 159.888 58.27 160.185 58.27 160.483C58.3593 162.031 58.9249 163.311 60.2943 164.026C61.7828 164.8 62.9438 165.484 64.5513 164.026C66.1588 162.567 66.3672 161.644 65.742 159.114C65.1764 156.554 64.9681 153.339 64.6108 153.249Z"
     fill="#4B44BE"
     id="path156" />
  <path
     d="M81.1624 158.31C78.4237 157.447 76.6078 153.755 76.6078 153.755L71.9638 153.487C71.9638 153.487 71.6959 157.238 71.5768 159.144C71.3982 161.674 71.8447 162.805 73.5118 162.686C75.7147 162.507 84.6454 163.311 86.0743 162.418C87.8902 161.198 83.6928 159.114 81.1624 158.31Z"
     fill="#4B44BE"
     id="path158" />
  <path
     d="M53.2093 86.4178V91.9846L59.9371 153.309H64.7001C64.7001 153.309 66.3374 111.245 66.3374 109.786C66.3374 108.328 66.7542 103.773 66.7542 103.773C66.7542 103.773 72.7378 121.039 72.8569 122.498C72.9759 123.927 71.8745 153.696 71.8745 153.696L76.6375 153.874C76.6375 153.874 80.8052 133.751 80.8052 131.845C80.8052 129.94 82.2341 120.057 81.9959 118.152C81.7876 116.246 78.245 86.5964 78.245 86.5964L70.9516 86.4178H53.2093Z"
     fill="url(#paint7_linear_33_371)"
     id="path160" />
  <path
     d="M84.0798 79.9876L84.0202 79.8983C84.0202 79.9579 84.05 80.0174 84.0798 79.9876ZM70.0883 74.5995L67.4389 75.7009L67.29 79.3923L70.2372 80.5533C70.2372 80.5235 73.4522 80.4342 73.4522 80.4044C73.482 80.2556 74.7323 80.2853 75.2979 80.6723L85.2705 77.2489L85.6278 74.8674C85.6278 74.8674 86.372 77.874 83.0379 71.8309L70.0883 74.5995ZM81.9959 62.4537L81.7875 61.2629L81.2815 61.1736L81.9959 62.4537ZM63.5689 30.4222C62.3484 30.9283 61.753 32.7144 61.753 32.7144C61.753 32.7144 61.1576 32.3572 61.1576 33.3693C61.1576 34.3815 61.6637 36.6737 62.0209 37.2691C62.6461 38.2515 63.2117 39.2636 63.7475 40.3353C64.2238 41.407 64.075 43.5503 63.5689 43.8778C63.0628 44.2053 54.013 52.3024 54.013 52.3024L46.541 75.2246V76.1474L47.6722 76.5344L48.863 77.5466C48.9821 77.5764 50.4705 78.3801 50.6789 78.529C51.8697 79.1243 53.12 79.5709 54.4298 79.8686C55.2633 80.0472 59.0142 79.9579 59.0142 79.9579L62.7949 79.8686L62.14 75.046L56.5434 74.9864L48.8928 74.5995L56.6625 56.7678L81.1326 61.1438C76.7864 53.2848 71.9042 44.4434 71.4577 43.5206C71.1005 42.7466 71.4875 40.9307 71.6958 39.9781C71.8745 39.1148 72.321 38.0431 72.708 37.7454C73.095 37.4477 73.8392 36.0188 73.8392 35.4234C73.8392 34.828 74.0178 32.4167 73.5118 32.9228C73.3629 33.0717 72.7675 32.1488 72.5591 31.2557C72.2317 29.9459 71.3089 29.0231 70.2669 28.1598C70.2669 28.1598 64.8787 29.9459 63.6582 30.452"
     fill="url(#paint8_linear_33_371)"
     id="path162" />
  <path
     d="M54.2214 47.3906C53.0307 48.1943 51.9292 49.266 51.5422 50.6652C51.1552 52.0643 48.2974 62.93 47.9104 64.2994C46.9876 67.6633 46.4219 68.6457 45.3205 72.5752C43.9809 77.4275 47.0769 78.1718 50.2324 78.8862C53.5367 79.6304 53.5665 79.9579 54.3405 79.9579C54.4596 79.9579 58.3891 80.7617 58.5082 78.529C58.5975 77.1298 58.3296 74.9269 57.8235 74.9865C56.6327 75.1651 52.733 74.1232 52.5246 74.0041C52.2567 73.8255 53.3581 70.789 54.0131 68.9136C54.4894 67.5144 56.2755 61.7392 56.6625 60.6378C56.8709 60.0424 55.6504 66.2641 54.9061 72.337C54.8764 72.5752 54.5787 74.9269 54.668 74.9269C55.561 74.9269 58.0021 74.9567 58.7463 75.046C62.1698 75.433 62.8247 77.0703 62.6163 78.3801C62.2293 80.6723 53.894 79.6007 53.9535 79.8984C53.9535 79.8984 52.5246 86.3582 53.3284 86.775C54.0131 87.1322 63.3605 91.032 65.3551 91.7762C65.5634 91.8655 65.8314 91.7464 65.8909 91.5083C65.8909 91.5083 65.8909 91.5083 65.8909 91.4785L67.171 87.8467C67.2007 87.8169 67.2305 87.7871 67.29 87.8169C67.3198 87.8169 67.3198 87.8467 67.3198 87.8467L68.5106 91.8357C68.5403 91.9548 68.6296 92.0143 68.6892 92.0739H69.225L79.6144 89.8412C79.6144 89.8412 79.5846 85.7331 79.5549 80.4937C79.5549 79.9579 79.4656 78.0229 79.0786 78.3801C78.6916 78.7374 70.0288 79.8686 69.0762 79.4816C67.0817 78.6481 67.5877 76.5345 68.3022 75.6712C69.106 74.6888 79.3465 74.1827 79.3763 73.4385C79.5549 70.2234 79.287 61.7988 79.1083 62.8109C78.8404 64.3887 72.8568 73.0515 72.8568 74.5697C72.8568 76.0879 72.7378 79.8686 72.7378 79.8686L82.5616 79.0946C82.5616 79.0946 85.8659 77.9634 86.1636 76.0581C86.4613 74.1529 86.1041 73.3194 85.985 70.4616C85.8957 68.6754 83.3653 57.8693 82.6509 54.8031C82.5318 54.3268 82.4722 53.8802 82.4425 53.4039C82.3532 52.1238 81.8471 49.1767 79.1083 47.8966C75.7147 46.2891 73.095 45.009 72.4103 45.009C71.7852 45.009 70.0288 48.8195 69.1357 49.8912C68.7487 50.3675 68.8083 50.6056 68.3022 51.3201C68.0343 51.7071 67.5282 51.7666 67.1412 51.4987C67.0519 51.4392 66.9923 51.3499 66.9328 51.2605C66.6351 50.8438 66.397 50.3675 66.1588 49.9209C65.7718 49.1172 62.6461 44.5327 62.6461 44.5327C62.6461 44.5327 55.4122 46.557 54.2214 47.3906Z"
     fill="url(#paint9_linear_33_371)"
     id="path164" />
  <path
     d="M70.2074 28.1895C70.2074 28.1895 63.5689 30.6604 63.0926 31.0176C62.6163 31.3748 61.753 32.7442 61.753 32.7442C61.753 32.7442 61.2767 32.4763 61.1874 33.1907C61.1874 33.1907 60.5027 31.7916 60.4134 31.0176C60.3241 30.2436 60.4134 28.2193 61.6935 26.8797C62.9735 25.5401 65.5337 23.7837 67.1114 24.0219C68.6892 24.26 69.3739 24.4386 70.3562 25.4508C71.3386 26.4332 72.2019 26.7309 72.4996 26.8797C72.7973 27.0285 73.9285 27.8621 74.1369 29.4101C74.3155 30.9581 73.8095 34.054 73.8095 34.054C73.8095 34.054 73.9583 32.8633 73.482 33.2205C73.1545 33.4884 72.6485 32.387 72.4996 31.7321C72.2912 31.0474 70.5944 28.3384 70.2074 28.1895Z"
     fill="url(#paint10_linear_33_371)"
     id="path166" />
  <g
     opacity="0.07"
     id="g170">
    <path
       d="M72.4401 45.0983C72.4103 44.9793 73.1545 45.5449 72.2615 44.9197C71.0112 43.9969 71.6065 40.2758 71.6065 40.2758C71.1302 41.2581 70.3265 42.0024 69.3441 42.3894C67.7663 42.9847 67.2603 42.5382 69.7311 43.9671C72.1424 45.3663 70.8921 45.8426 70.7135 47.6882"
       fill="black"
       id="path168" />
  </g>
  <g
     opacity="0.07"
     id="g174">
    <path
       d="M77.2924 58.2563L80.5968 70.7593C80.5968 70.7593 80.567 72.9919 79.9121 73.3194C79.2572 73.6468 77.1733 73.8552 76.697 74.0934C76.2207 74.3315 71.16 75.3735 72.4698 73.5873C72.7675 73.2003 79.6144 70.789 76.5482 68.2884C73.482 65.7878 74.0178 62.2751 75.5063 59.8638C76.9947 57.4525 76.6673 55.3984 76.6673 55.3984L77.2924 58.2563Z"
       fill="black"
       id="path172" />
  </g>
  <g
     opacity="0.07"
     id="g178">
    <path
       d="M63.3307 91.1808C63.3307 91.1808 60.4729 106.333 61.9614 112.376C64.194 121.545 60.979 133.959 60.979 139.913C60.979 143.783 62.4972 154.47 62.6163 158.846C62.6461 160.156 63.5987 162.686 62.8842 163.281C62.5865 163.549 60.7706 162.954 59.7882 162.478C59.2524 162.21 58.9547 161.674 59.0142 161.138L59.6096 158.548L60.4431 155.125L54.5191 99.7245C54.5191 99.7245 52.6139 87.4001 53.6856 87.3406C54.7573 87.2811 63.3605 91.1808 63.3307 91.1808Z"
       fill="black"
       id="path176" />
  </g>
  <path
     d="M60.6218 70.8188L71.8149 72.2179C72.0531 72.2775 72.2019 72.4859 72.1721 72.7538L71.8447 82.8752C71.8149 83.2027 71.6363 83.6195 71.3386 83.5302L60.205 81.3868C59.9966 81.3273 59.8478 81.1189 59.8478 80.9105L59.818 79.809L61.0385 79.4816C61.366 79.3923 61.6637 79.2137 61.9018 79.035C61.9614 79.0053 62.0209 78.9457 62.0507 78.8862L62.3186 78.4992C62.4079 78.3801 62.4377 78.2313 62.4079 78.1122C62.3781 77.874 62.2888 77.5764 62.2591 77.3977C62.2293 77.3382 62.2293 77.2787 62.1995 77.2191L61.9316 76.6237C61.8125 76.3558 61.6041 76.1474 61.3064 75.9986L61.1278 75.9093L59.9371 75.2544L60.0561 71.2951C60.0561 71.0272 60.2943 70.8188 60.5622 70.8188C60.592 70.8188 60.592 70.8188 60.6218 70.8188Z"
     fill="white"
     id="path180" />
  <path
     d="M212.34 97.3054L237.197 96.2634L240.888 78.9379L215.644 79.1463L211.863 97.2756"
     fill="url(#paint11_linear_33_371)"
     id="path182" />
  <path
     d="M226.688 90.2501C227.527 90.2501 228.207 89.5304 228.207 88.6426C228.207 87.7547 227.527 87.035 226.688 87.035C225.85 87.035 225.17 87.7547 225.17 88.6426C225.17 89.5304 225.85 90.2501 226.688 90.2501Z"
     fill="white"
     id="path184" />
  <path
     d="M212.102 96.0253L198.527 95.9955C198.438 95.9955 198.378 96.0551 198.348 96.1444L198.17 96.9481C198.14 97.0375 198.199 97.1268 198.319 97.1565C198.348 97.1565 198.348 97.1565 198.348 97.1565L211.863 97.2756C211.953 97.2756 212.012 97.2161 212.042 97.1268L212.28 96.2039C212.31 96.1146 212.25 96.0253 212.161 95.9955C212.131 96.0253 212.131 96.0253 212.102 96.0253Z"
     fill="url(#paint12_linear_33_371)"
     id="path186" />
  <path
     d="M215.227 78.6699L240.472 78.4913C240.501 78.4913 240.531 78.5211 240.561 78.5509L240.888 78.9379L215.733 79.1463C215.674 79.1463 215.644 79.176 215.614 79.2356L212.34 97.1863C212.34 97.2458 212.28 97.2756 212.221 97.2756H212.012C211.953 97.2756 211.893 97.2161 211.893 97.1565C211.893 97.1565 211.893 97.1565 211.893 97.1267L215.019 78.8486C215.019 78.7593 215.108 78.6699 215.227 78.6699Z"
     fill="url(#paint13_linear_33_371)"
     id="path188" />
  <path
     d="M259.137 88.1365L257.41 97.9305C257.41 97.9305 259.643 97.5435 260.714 97.9305L259.137 88.1365Z"
     fill="url(#paint14_linear_33_371)"
     id="path190" />
  <path
     d="M259.137 88.1365L260.714 97.9305C260.714 97.9305 267.353 97.0969 272.443 97.8709L270.628 88.1662L259.137 88.1365Z"
     fill="#FCFCFC"
     id="path192" />
  <path
     d="M265.745 93.1079L264.138 93.1377L263.93 91.8576H265.507L265.745 93.1079Z"
     fill="#58CAEA"
     id="path194" />
  <path
     d="M268.306 93.0484L266.698 93.0781L266.46 91.7683H268.038L268.306 93.0484Z"
     fill="#58CAEA"
     id="path196" />
  <path
     d="M270.717 93.0484L269.109 93.0781L268.871 91.7981H270.449L270.717 93.0484Z"
     fill="#58CAEA"
     id="path198" />
  <path
     d="M271.015 94.8047L269.437 94.8345L269.199 93.5247H270.747L271.015 94.8047Z"
     fill="#58CAEA"
     id="path200" />
  <path
     d="M266.103 94.775L264.495 94.8047L264.257 93.5247L265.835 93.4949L266.103 94.775Z"
     fill="#58CAEA"
     id="path202" />
  <path
     d="M263.632 94.8643L262.024 94.8941L261.786 93.5842H263.364L263.632 94.8643Z"
     fill="#58CAEA"
     id="path204" />
  <path
     d="M264.019 96.6504L262.411 96.6802L262.173 95.4001H263.751L264.019 96.6504Z"
     fill="#58CAEA"
     id="path206" />
  <path
     d="M266.49 96.6207L264.882 96.6504L264.644 95.3703L266.222 95.3406L266.49 96.6207Z"
     fill="#58CAEA"
     id="path208" />
  <path
     d="M269.02 96.6207L267.412 96.6504L267.174 95.3406H268.752L269.02 96.6207Z"
     fill="#58CAEA"
     id="path210" />
  <path
     d="M268.633 94.775L267.025 94.8047L266.787 93.5247L268.365 93.4949L268.633 94.775Z"
     fill="url(#paint15_linear_33_371)"
     id="path212" />
  <path
     d="M259.137 88.1365L259.583 90.9348L271.163 90.8752L270.628 88.1662L259.137 88.1365Z"
     fill="url(#paint16_linear_33_371)"
     id="path214" />
  <path
     d="M262.292 87.5113L263.185 87.4816L263.275 88.7319H262.411L262.292 87.5113Z"
     fill="url(#paint17_linear_33_371)"
     id="path216" />
  <path
     d="M267.799 87.5709L268.544 87.5411L268.633 88.7021H267.889L267.799 87.5709Z"
     fill="url(#paint18_linear_33_371)"
     id="path218" />
  <path
     d="M211.744 46.4896H217.013C217.073 46.4896 217.103 46.5194 217.103 46.5789C217.103 46.6385 217.073 46.6682 217.013 46.6682H211.744C211.685 46.6682 211.655 46.6385 211.655 46.5789C211.655 46.5492 211.685 46.4896 211.744 46.4896Z"
     fill="#F4F4F4"
     id="path220" />
  <path
     d="M211.744 46.8171H217.013C217.073 46.8171 217.103 46.8468 217.103 46.9064C217.103 46.9659 217.073 46.9957 217.013 46.9957H211.744C211.685 46.9957 211.655 46.9659 211.655 46.9064C211.655 46.8468 211.685 46.8171 211.744 46.8171Z"
     fill="#F4F4F4"
     id="path222" />
  <path
     d="M211.744 47.1445H217.013C217.073 47.1445 217.103 47.1743 217.103 47.2338C217.103 47.2934 217.073 47.3231 217.013 47.3231H211.744C211.685 47.3231 211.655 47.2934 211.655 47.2338C211.655 47.1743 211.685 47.1445 211.744 47.1445Z"
     fill="#F4F4F4"
     id="path224" />
  <path
     d="M212.935 48.1567H217.728C217.787 48.1567 217.817 48.1864 217.817 48.246C217.817 48.3055 217.787 48.3353 217.728 48.3353H212.935C212.876 48.3353 212.846 48.3055 212.846 48.246C212.846 48.1864 212.905 48.1567 212.935 48.1567Z"
     fill="#F4F4F4"
     id="path226" />
  <path
     d="M212.935 48.4841H217.728C217.787 48.4841 217.817 48.5139 217.817 48.5734C217.817 48.633 217.787 48.6627 217.728 48.6627H212.935C212.876 48.6627 212.846 48.633 212.846 48.5734C212.846 48.5139 212.905 48.4841 212.935 48.4841Z"
     fill="#F4F4F4"
     id="path228" />
  <path
     d="M212.935 48.7818H217.728C217.787 48.7818 217.817 48.8116 217.817 48.8711C217.817 48.9307 217.787 48.9604 217.728 48.9604H212.935C212.876 48.9604 212.846 48.9307 212.846 48.8711C212.846 48.8414 212.905 48.7818 212.935 48.7818Z"
     fill="#F4F4F4"
     id="path230" />
  <path
     d="M204.689 46.1622C204.689 46.1622 203.975 46.2217 203.975 46.9361C203.975 47.6506 204.719 47.6804 204.719 47.6804L217.222 47.7101V47.5018H211.625C211.625 47.5018 211.447 47.5315 211.476 47.2636V46.5194C211.476 46.4301 211.536 46.3705 211.625 46.3408C211.863 46.3408 217.103 46.4003 217.103 46.4003V46.1324L204.689 46.1622Z"
     fill="url(#paint19_linear_33_371)"
     id="path232" />
  <path
     d="M205.195 47.6804C205.195 47.6804 204.421 47.7697 204.421 48.5437C204.421 49.2284 204.957 49.3772 205.106 49.407C205.136 49.407 205.165 49.407 205.165 49.407H217.907V49.1391H212.965C212.965 49.1391 212.637 49.1391 212.697 48.8116V48.1567C212.697 48.1567 212.667 47.9185 212.935 47.9185C213.173 47.9185 217.847 47.9781 217.847 47.9781V47.6506L205.195 47.6804Z"
     fill="url(#paint20_linear_33_371)"
     id="path234" />
  <path
     d="M212.399 46.4896H212.816C212.935 46.5789 213.024 46.698 213.054 46.8469C213.114 47.085 213.054 47.1743 213.203 47.4422C213.292 47.6208 213.382 47.7102 213.441 47.8292C213.441 47.859 213.471 48.0078 213.471 48.0376L213.501 48.4544L213.322 48.3353L213.144 48.5139C213.144 48.5139 213.144 47.9483 213.084 47.8292C213.024 47.7102 212.727 47.3232 212.757 47.0552C212.846 46.7873 212.727 46.6682 212.399 46.4896Z"
     fill="#F8246A"
     id="path236" />
  <path
     d="M219.276 38.7497H220.229C220.467 38.7497 220.645 38.9283 220.645 39.1665V49.2284C220.645 49.4665 220.467 49.6452 220.229 49.6452H219.276C219.038 49.6452 218.859 49.4665 218.859 49.2284V39.1665C218.859 38.9283 219.038 38.7497 219.276 38.7497Z"
     fill="url(#paint21_linear_33_371)"
     id="path238" />
  <path
     d="M199.212 38.6604H200.164C200.402 38.6604 200.581 38.839 200.581 39.0771V49.1391C200.581 49.3772 200.402 49.5558 200.164 49.5558H199.212C198.973 49.5558 198.795 49.3772 198.795 49.1391V39.0771C198.765 38.8688 198.973 38.6604 199.212 38.6604Z"
     fill="url(#paint22_linear_33_371)"
     id="path240" />
  <path
     d="M222.67 43.0662L223.354 42.6792C223.563 42.5601 223.831 42.6197 223.92 42.828L227.284 48.633C227.403 48.8414 227.343 49.1093 227.135 49.1986L226.45 49.5856C226.242 49.7047 225.974 49.6451 225.885 49.4368L222.521 43.6318C222.402 43.4532 222.461 43.1853 222.67 43.0662Z"
     fill="url(#paint23_linear_33_371)"
     id="path242" />
  <path
     d="M221.062 40.2977H222.015C222.253 40.2977 222.431 40.4763 222.431 40.7144V49.2284C222.431 49.4665 222.253 49.6451 222.015 49.6451H221.062C220.824 49.6451 220.645 49.4665 220.645 49.2284V40.7144C220.645 40.4763 220.824 40.2977 221.062 40.2977Z"
     fill="url(#paint24_linear_33_371)"
     id="path244" />
  <path
     d="M201.028 39.0474H201.98C202.218 39.0474 202.397 39.226 202.397 39.4641V49.1391C202.397 49.3772 202.218 49.5558 201.98 49.5558H201.028C200.789 49.5558 200.611 49.3772 200.611 49.1391V39.4641C200.611 39.2557 200.789 39.0474 201.028 39.0474Z"
     fill="url(#paint25_linear_33_371)"
     id="path246" />
  <path
     d="M351.411 135.289L381.483 123.002L382 0C382 0 359.818 1.42274 351.088 9.82982L351.411 135.289Z"
     fill="#E9EDFB"
     id="path248" />
  <path
     d="M351.088 9.82983L351.832 135.128L346.561 137.326C346.561 137.326 347.305 131.636 346.011 119.251C344.815 107.708 332.592 79.7056 331.687 69.0028C331.04 61.4041 331.396 30.4595 338.962 21.2764C345.947 12.837 351.088 9.82983 351.088 9.82983Z"
     fill="#E9EDFB"
     id="path250" />
  <path
     d="M367.197 46.3349C370.628 45.7373 373.074 43.3275 372.66 40.9523C372.246 38.5771 369.13 37.1361 365.699 37.7337C362.268 38.3312 359.822 40.7411 360.236 43.1163C360.65 45.4914 363.766 46.9325 367.197 46.3349Z"
     fill="white"
     id="path252" />
  <path
     d="M374.203 44.213C377 43.7257 378.995 41.7619 378.658 39.8265C378.321 37.8912 375.78 36.7173 372.982 37.2046C370.185 37.6918 368.19 39.6557 368.528 41.591C368.865 43.5263 371.406 44.7002 374.203 44.213Z"
     fill="white"
     id="path254" />
  <path
     d="M338.71 61.5382C342.141 60.9406 344.587 58.5307 344.173 56.1556C343.759 53.7804 340.643 52.3394 337.212 52.937C333.781 53.5345 331.335 55.9444 331.749 58.3196C332.163 60.6947 335.279 62.1357 338.71 61.5382Z"
     fill="white"
     id="path256" />
  <path
     d="M344.778 57.4708C347.575 56.9836 349.57 55.0197 349.233 53.0844C348.895 51.149 346.354 49.9751 343.557 50.4624C340.76 50.9496 338.765 52.9135 339.102 54.8488C339.439 56.7842 341.98 57.958 344.778 57.4708Z"
     fill="white"
     id="path258" />
  <path
     d="M353.642 7.82505L355.162 6.98434L355.227 6.95201L356.164 6.46698L357.07 6.04663L358.59 132.315L355.421 133.64L353.642 7.82505Z"
     fill="white"
     id="path260" />
  <path
     d="M342.066 103.601L341.711 102.405C341.646 102.437 341.452 101.532 341.42 101.532L341.032 100.562L340.676 99.4946L381.709 84.0062L381.838 87.466L342.066 103.601Z"
     fill="white"
     id="path262" />
  <path
     d="M332.075 71.6865L331.946 71.0075C331.881 70.8135 331.784 70.0051 331.719 69.8111L331.558 68.4854L331.396 67.5153L382 48.179L381.838 51.5742L332.075 71.6865Z"
     fill="white"
     id="path264" />
  <defs
     id="defs412">
    <linearGradient
       id="paint0_linear_33_371"
       x1="281.992"
       y1="139.428"
       x2="306.518"
       y2="139.428"
       gradientUnits="userSpaceOnUse">
      <stop
         stop-color="#93FD93"
         id="stop266" />
      <stop
         offset="0.51"
         stop-color="#21C2C1"
         id="stop268" />
      <stop
         offset="1"
         stop-color="#84F599"
         id="stop270" />
    </linearGradient>
    <linearGradient
       id="paint1_linear_33_371"
       x1="291.182"
       y1="131.683"
       x2="305.117"
       y2="148.768"
       gradientUnits="userSpaceOnUse">
      <stop
         stop-color="#93FD93"
         id="stop273" />
      <stop
         offset="0.51"
         stop-color="#21C2C1"
         id="stop275" />
      <stop
         offset="1"
         stop-color="#84F599"
         id="stop277" />
    </linearGradient>
    <linearGradient
       id="paint2_linear_33_371"
       x1="307.228"
       y1="151.002"
       x2="326.386"
       y2="136.178"
       gradientUnits="userSpaceOnUse">
      <stop
         stop-color="#93FD93"
         id="stop280" />
      <stop
         offset="0.51"
         stop-color="#21C2C1"
         id="stop282" />
      <stop
         offset="1"
         stop-color="#84F599"
         id="stop284" />
    </linearGradient>
    <linearGradient
       id="paint3_linear_33_371"
       x1="312.044"
       y1="143.474"
       x2="295.589"
       y2="122.642"
       gradientUnits="userSpaceOnUse">
      <stop
         stop-color="#93FD93"
         id="stop287" />
      <stop
         offset="0.51"
         stop-color="#21C2C1"
         id="stop289" />
      <stop
         offset="1"
         stop-color="#84F599"
         id="stop291" />
    </linearGradient>
    <linearGradient
       id="paint4_linear_33_371"
       x1="295.798"
       y1="130.565"
       x2="307.375"
       y2="130.565"
       gradientUnits="userSpaceOnUse">
      <stop
         stop-color="#93FD93"
         id="stop294" />
      <stop
         offset="0.51"
         stop-color="#21C2C1"
         id="stop296" />
      <stop
         offset="1"
         stop-color="#84F599"
         id="stop298" />
    </linearGradient>
    <linearGradient
       id="paint5_linear_33_371"
       x1="306.383"
       y1="149.48"
       x2="318.924"
       y2="131.343"
       gradientUnits="userSpaceOnUse">
      <stop
         stop-color="#93FD93"
         id="stop301" />
      <stop
         offset="0.51"
         stop-color="#21C2C1"
         id="stop303" />
      <stop
         offset="1"
         stop-color="#84F599"
         id="stop305" />
    </linearGradient>
    <linearGradient
       id="paint6_linear_33_371"
       x1="299.153"
       y1="154.167"
       x2="317.022"
       y2="154.167"
       gradientUnits="userSpaceOnUse">
      <stop
         offset="0.000688093"
         stop-color="#58CAEA"
         id="stop308" />
      <stop
         offset="0.9992"
         stop-color="#4B45BD"
         id="stop310" />
    </linearGradient>
    <linearGradient
       id="paint7_linear_33_371"
       x1="53.2222"
       y1="120.124"
       x2="82.0417"
       y2="120.124"
       gradientUnits="userSpaceOnUse">
      <stop
         stop-color="#4B45BD"
         id="stop313" />
      <stop
         offset="1"
         stop-color="#58CAEA"
         id="stop315" />
    </linearGradient>
    <linearGradient
       id="paint8_linear_33_371"
       x1="46.5407"
       y1="54.3982"
       x2="85.6633"
       y2="54.3982"
       gradientUnits="userSpaceOnUse">
      <stop
         stop-color="#F87B58"
         id="stop318" />
      <stop
         offset="0.41"
         stop-color="#F89453"
         id="stop320" />
      <stop
         offset="0.71"
         stop-color="#F8C548"
         id="stop322" />
      <stop
         offset="1"
         stop-color="#F89C51"
         id="stop324" />
    </linearGradient>
    <linearGradient
       id="paint9_linear_33_371"
       x1="44.9892"
       y1="68.3638"
       x2="86.3418"
       y2="68.3638"
       gradientUnits="userSpaceOnUse">
      <stop
         stop-color="#E5A4ED"
         id="stop327" />
      <stop
         offset="1"
         stop-color="#7A5BF5"
         id="stop329" />
    </linearGradient>
    <linearGradient
       id="paint10_linear_33_371"
       x1="60.4088"
       y1="29.0045"
       x2="74.1748"
       y2="29.0045"
       gradientUnits="userSpaceOnUse">
      <stop
         stop-color="#4B45BD"
         id="stop332" />
      <stop
         offset="1"
         stop-color="#58CAEA"
         id="stop334" />
    </linearGradient>
    <linearGradient
       id="paint11_linear_33_371"
       x1="211.872"
       y1="88.1201"
       x2="240.89"
       y2="88.1201"
       gradientUnits="userSpaceOnUse">
      <stop
         stop-color="#E5A4ED"
         id="stop337" />
      <stop
         offset="1"
         stop-color="#7A5BF5"
         id="stop339" />
    </linearGradient>
    <linearGradient
       id="paint12_linear_33_371"
       x1="198.172"
       y1="96.6467"
       x2="212.291"
       y2="96.6467"
       gradientUnits="userSpaceOnUse">
      <stop
         stop-color="#E5A4ED"
         id="stop342" />
      <stop
         offset="1"
         stop-color="#7A5BF5"
         id="stop344" />
    </linearGradient>
    <linearGradient
       id="paint13_linear_33_371"
       x1="211.88"
       y1="87.8943"
       x2="240.897"
       y2="87.8943"
       gradientUnits="userSpaceOnUse">
      <stop
         stop-color="#E5A4ED"
         id="stop347" />
      <stop
         offset="1"
         stop-color="#7A5BF5"
         id="stop349" />
    </linearGradient>
    <linearGradient
       id="paint14_linear_33_371"
       x1="257.409"
       y1="93.0366"
       x2="260.714"
       y2="93.0366"
       gradientUnits="userSpaceOnUse">
      <stop
         stop-color="#58CAEA"
         id="stop352" />
      <stop
         offset="1"
         stop-color="#4C4CBF"
         id="stop354" />
    </linearGradient>
    <linearGradient
       id="paint15_linear_33_371"
       x1="266.798"
       y1="94.1657"
       x2="268.608"
       y2="94.124"
       gradientUnits="userSpaceOnUse">
      <stop
         stop-color="#58CAEA"
         id="stop357" />
      <stop
         offset="1"
         stop-color="#4C4CBF"
         id="stop359" />
    </linearGradient>
    <linearGradient
       id="paint16_linear_33_371"
       x1="259.15"
       y1="89.5301"
       x2="271.152"
       y2="89.5301"
       gradientUnits="userSpaceOnUse">
      <stop
         stop-color="#4C4FC0"
         id="stop362" />
      <stop
         offset="1"
         stop-color="#58CAEA"
         id="stop364" />
    </linearGradient>
    <linearGradient
       id="paint17_linear_33_371"
       x1="262.304"
       y1="88.1069"
       x2="263.28"
       y2="88.1069"
       gradientUnits="userSpaceOnUse">
      <stop
         stop-color="#4D54C2"
         id="stop367" />
      <stop
         offset="1"
         stop-color="#4C4CBF"
         id="stop369" />
    </linearGradient>
    <linearGradient
       id="paint18_linear_33_371"
       x1="267.789"
       y1="88.1202"
       x2="268.632"
       y2="88.1202"
       gradientUnits="userSpaceOnUse">
      <stop
         stop-color="#4D54C2"
         id="stop372" />
      <stop
         offset="1"
         stop-color="#4C4CBF"
         id="stop374" />
    </linearGradient>
    <linearGradient
       id="paint19_linear_33_371"
       x1="203.963"
       y1="46.9078"
       x2="217.198"
       y2="46.9078"
       gradientUnits="userSpaceOnUse">
      <stop
         stop-color="#4B46BD"
         id="stop377" />
      <stop
         offset="1"
         stop-color="#5CD4EE"
         id="stop379" />
    </linearGradient>
    <linearGradient
       id="paint20_linear_33_371"
       x1="204.429"
       y1="48.5207"
       x2="217.953"
       y2="48.5207"
       gradientUnits="userSpaceOnUse">
      <stop
         stop-color="#E5A4ED"
         id="stop382" />
      <stop
         offset="1"
         stop-color="#7A5BF5"
         id="stop384" />
    </linearGradient>
    <linearGradient
       id="paint21_linear_33_371"
       x1="216.992"
       y1="47.6466"
       x2="224.372"
       y2="38.4382"
       gradientUnits="userSpaceOnUse">
      <stop
         stop-color="#4B46BD"
         id="stop387" />
      <stop
         offset="1"
         stop-color="#5CD4EE"
         id="stop389" />
    </linearGradient>
    <linearGradient
       id="paint22_linear_33_371"
       x1="196.91"
       y1="47.576"
       x2="204.29"
       y2="38.3676"
       gradientUnits="userSpaceOnUse">
      <stop
         stop-color="#4B46BD"
         id="stop392" />
      <stop
         offset="1"
         stop-color="#5CD4EE"
         id="stop394" />
    </linearGradient>
    <linearGradient
       id="paint23_linear_33_371"
       x1="224.051"
       y1="49.4177"
       x2="224.525"
       y2="40.6483"
       gradientUnits="userSpaceOnUse">
      <stop
         stop-color="#4B46BD"
         id="stop397" />
      <stop
         offset="1"
         stop-color="#5CD4EE"
         id="stop399" />
    </linearGradient>
    <linearGradient
       id="paint24_linear_33_371"
       x1="219.141"
       y1="47.9731"
       x2="225.56"
       y2="39.9646"
       gradientUnits="userSpaceOnUse">
      <stop
         stop-color="#7D5DF5"
         id="stop402" />
      <stop
         offset="1"
         stop-color="#CD94EF"
         id="stop404" />
    </linearGradient>
    <linearGradient
       id="paint25_linear_33_371"
       x1="198.824"
       y1="47.6579"
       x2="205.964"
       y2="38.7494"
       gradientUnits="userSpaceOnUse">
      <stop
         stop-color="#E5A4ED"
         id="stop407" />
      <stop
         offset="1"
         stop-color="#7A5BF5"
         id="stop409" />
    </linearGradient>
  </defs>
</svg>
