<svg width="11" height="13" viewBox="0 0 11 13" fill="none" xmlns="http://www.w3.org/2000/svg">
<path d="M8.98137 1.1593L5.58783 0.0277554C5.47672 -0.00925181 5.35661 -0.00925181 5.2455 0.0277554L1.85142 1.1593C1.31197 1.33862 0.842737 1.68336 0.51038 2.14456C0.178024 2.60575 -0.000558495 3.15995 1.31212e-06 3.72842V6.50013C1.31212e-06 10.5968 4.98333 12.8593 5.19675 12.9535C5.26599 12.9843 5.34091 13.0002 5.41667 13.0002C5.49243 13.0002 5.56735 12.9843 5.63658 12.9535C5.85 12.8593 10.8333 10.5968 10.8333 6.50013V3.72842C10.8339 3.15988 10.6552 2.60564 10.3227 2.14443C9.99028 1.68323 9.52093 1.33852 8.98137 1.1593ZM5.41667 10.2918C5.30954 10.2918 5.20481 10.26 5.11573 10.2005C5.02666 10.141 4.95723 10.0564 4.91623 9.95742C4.87524 9.85844 4.86451 9.74953 4.88541 9.64446C4.90631 9.53938 4.9579 9.44287 5.03365 9.36712C5.10941 9.29136 5.20592 9.23977 5.31099 9.21887C5.41607 9.19797 5.52498 9.2087 5.62395 9.2497C5.72293 9.29069 5.80753 9.36012 5.86705 9.4492C5.92657 9.53827 5.95833 9.643 5.95833 9.75013C5.95833 9.89379 5.90127 10.0316 5.79968 10.1331C5.6981 10.2347 5.56033 10.2918 5.41667 10.2918ZM5.95833 7.58347C5.95833 7.72712 5.90127 7.8649 5.79968 7.96648C5.6981 8.06806 5.56033 8.12513 5.41667 8.12513C5.27301 8.12513 5.13523 8.06806 5.03365 7.96648C4.93207 7.8649 4.875 7.72712 4.875 7.58347V3.25013C4.875 3.10647 4.93207 2.9687 5.03365 2.86711C5.13523 2.76553 5.27301 2.70846 5.41667 2.70846C5.56033 2.70846 5.6981 2.76553 5.79968 2.86711C5.90127 2.9687 5.95833 3.10647 5.95833 3.25013V7.58347Z" fill="#F6C23E"/>
</svg>
