<svg width="18" height="21" viewBox="0 0 18 21" fill="none" xmlns="http://www.w3.org/2000/svg">
<circle cx="8.84629" cy="5.4337" r="5.4337" fill="#02499B"/>
<circle cx="8.84629" cy="5.4337" r="5.4337" fill="#3F3D56" fill-opacity="0.4"/>
<rect x="3.16992" y="3.17029" width="11.4424" height="4.52682" rx="2.26341" fill="white"/>
<rect x="3.16992" y="3.17029" width="11.4424" height="4.52682" rx="2.26341" stroke="#02499B" stroke-width="3"/>
<rect x="3.16992" y="3.17029" width="11.4424" height="4.52682" rx="2.26341" stroke="#3F3D56" stroke-opacity="0.4" stroke-width="3"/>
<path fill-rule="evenodd" clip-rule="evenodd" d="M17.1731 16.3029C17.8617 17.8148 18.7628 20.8385 16.8588 20.8385H9.00011V12.2164C11.4251 12.1715 15.6463 12.9505 17.1731 16.3029ZM0.827006 16.3029C0.138439 17.8148 -0.762687 20.8385 1.14135 20.8385H9V12.2164C6.57504 12.1715 2.35382 12.9506 0.827006 16.3029Z" fill="#02499B"/>
<path fill-rule="evenodd" clip-rule="evenodd" d="M17.1731 16.3029C17.8617 17.8148 18.7628 20.8385 16.8588 20.8385H9.00011V12.2164C11.4251 12.1715 15.6463 12.9505 17.1731 16.3029ZM0.827006 16.3029C0.138439 17.8148 -0.762687 20.8385 1.14135 20.8385H9V12.2164C6.57504 12.1715 2.35382 12.9506 0.827006 16.3029Z" fill="#3F3D56" fill-opacity="0.4"/>
<path opacity="0.9" d="M5.32477 17.3326L4.30357 17.6291C3.9369 17.7355 3.66281 17.2917 3.92221 17.0115C4.03991 16.8844 4.05571 16.6934 3.9605 16.5486L3.90336 16.4618C3.62825 16.0436 4.05818 15.521 4.52154 15.7103L5.39155 16.0658C5.98062 16.3065 5.93587 17.1552 5.32477 17.3326Z" fill="white"/>
</svg>
