<svg width="22" height="22" viewBox="0 0 22 22" fill="none" xmlns="http://www.w3.org/2000/svg">
<path d="M10.9999 0.333374C16.5999 0.333374 20.3333 1.80004 20.3333 3.66671V5.66671C21.0708 5.66671 21.6666 6.26254 21.6666 7.00004V9.66671C21.6666 10.4042 21.0708 11 20.3333 11V17.6667C20.3333 18.4042 19.7374 19 18.9999 19V20.3334C18.9999 21.0709 18.4041 21.6667 17.6666 21.6667H16.3333C15.5958 21.6667 14.9999 21.0709 14.9999 20.3334V19H6.99992V20.3334C6.99992 21.0709 6.40409 21.6667 5.66659 21.6667H4.33325C3.59575 21.6667 2.99992 21.0709 2.99992 20.3334V19C2.26367 19 1.66659 18.4042 1.66659 17.6667V11C0.930335 11 0.333252 10.4042 0.333252 9.66671V7.00004C0.333252 6.26254 0.930335 5.66671 1.66659 5.66671V3.66671C1.66659 1.80004 5.39992 0.333374 10.9999 0.333374ZM4.33325 11C4.33325 11.7375 4.92909 12.3334 5.66659 12.3334H10.3333V5.66671H5.66659C4.92909 5.66671 4.33325 6.26254 4.33325 7.00004V11ZM11.6666 12.3334H16.3333C17.0708 12.3334 17.6666 11.7375 17.6666 11V7.00004C17.6666 6.26254 17.0708 5.66671 16.3333 5.66671H11.6666V12.3334ZM4.99992 17C5.73742 17 6.33325 16.4042 6.33325 15.6667C6.33325 14.9292 5.73742 14.3334 4.99992 14.3334C4.26242 14.3334 3.66659 14.9292 3.66659 15.6667C3.66659 16.4042 4.26242 17 4.99992 17ZM16.9999 17C17.7374 17 18.3333 16.4042 18.3333 15.6667C18.3333 14.9292 17.7374 14.3334 16.9999 14.3334C16.2624 14.3334 15.6666 14.9292 15.6666 15.6667C15.6666 16.4042 16.2624 17 16.9999 17ZM14.3333 3.00004H7.66659C7.29992 3.00004 6.99992 3.29837 6.99992 3.66671C6.99992 4.03504 7.29992 4.33337 7.66659 4.33337H14.3333C14.6999 4.33337 14.9999 4.03504 14.9999 3.66671C14.9999 3.29837 14.6999 3.00004 14.3333 3.00004Z" fill="#02499B"/>
<path d="M10.9999 0.333374C16.5999 0.333374 20.3333 1.80004 20.3333 3.66671V5.66671C21.0708 5.66671 21.6666 6.26254 21.6666 7.00004V9.66671C21.6666 10.4042 21.0708 11 20.3333 11V17.6667C20.3333 18.4042 19.7374 19 18.9999 19V20.3334C18.9999 21.0709 18.4041 21.6667 17.6666 21.6667H16.3333C15.5958 21.6667 14.9999 21.0709 14.9999 20.3334V19H6.99992V20.3334C6.99992 21.0709 6.40409 21.6667 5.66659 21.6667H4.33325C3.59575 21.6667 2.99992 21.0709 2.99992 20.3334V19C2.26367 19 1.66659 18.4042 1.66659 17.6667V11C0.930335 11 0.333252 10.4042 0.333252 9.66671V7.00004C0.333252 6.26254 0.930335 5.66671 1.66659 5.66671V3.66671C1.66659 1.80004 5.39992 0.333374 10.9999 0.333374ZM4.33325 11C4.33325 11.7375 4.92909 12.3334 5.66659 12.3334H10.3333V5.66671H5.66659C4.92909 5.66671 4.33325 6.26254 4.33325 7.00004V11ZM11.6666 12.3334H16.3333C17.0708 12.3334 17.6666 11.7375 17.6666 11V7.00004C17.6666 6.26254 17.0708 5.66671 16.3333 5.66671H11.6666V12.3334ZM4.99992 17C5.73742 17 6.33325 16.4042 6.33325 15.6667C6.33325 14.9292 5.73742 14.3334 4.99992 14.3334C4.26242 14.3334 3.66659 14.9292 3.66659 15.6667C3.66659 16.4042 4.26242 17 4.99992 17ZM16.9999 17C17.7374 17 18.3333 16.4042 18.3333 15.6667C18.3333 14.9292 17.7374 14.3334 16.9999 14.3334C16.2624 14.3334 15.6666 14.9292 15.6666 15.6667C15.6666 16.4042 16.2624 17 16.9999 17ZM14.3333 3.00004H7.66659C7.29992 3.00004 6.99992 3.29837 6.99992 3.66671C6.99992 4.03504 7.29992 4.33337 7.66659 4.33337H14.3333C14.6999 4.33337 14.9999 4.03504 14.9999 3.66671C14.9999 3.29837 14.6999 3.00004 14.3333 3.00004Z" fill="#3F3D56" fill-opacity="0.4"/>
</svg>
