<svg width="26" height="20" viewBox="0 0 26 20" fill="none" xmlns="http://www.w3.org/2000/svg">
<path d="M22.8571 0C24.433 0 25.7143 1.27902 25.7143 2.85714V4.28571H0V2.85714C0 1.27902 1.27902 0 2.85714 0H22.8571ZM25.7143 17.1429C25.7143 18.7188 24.433 20 22.8571 20H2.85714C1.27902 20 0 18.7188 0 17.1429V8.57143H25.7143V17.1429ZM5 14.2857C4.60714 14.2857 4.28571 14.6071 4.28571 15C4.28571 15.3929 4.60714 15.7143 5 15.7143H7.85714C8.25 15.7143 8.57143 15.3929 8.57143 15C8.57143 14.6071 8.25 14.2857 7.85714 14.2857H5ZM10.7143 15.7143H16.4286C16.8214 15.7143 17.1429 15.3929 17.1429 15C17.1429 14.6071 16.8214 14.2857 16.4286 14.2857H10.7143C10.3214 14.2857 10 14.6071 10 15C10 15.3929 10.3214 15.7143 10.7143 15.7143Z" fill="#02499B"/>
<path d="M22.8571 0C24.433 0 25.7143 1.27902 25.7143 2.85714V4.28571H0V2.85714C0 1.27902 1.27902 0 2.85714 0H22.8571ZM25.7143 17.1429C25.7143 18.7188 24.433 20 22.8571 20H2.85714C1.27902 20 0 18.7188 0 17.1429V8.57143H25.7143V17.1429ZM5 14.2857C4.60714 14.2857 4.28571 14.6071 4.28571 15C4.28571 15.3929 4.60714 15.7143 5 15.7143H7.85714C8.25 15.7143 8.57143 15.3929 8.57143 15C8.57143 14.6071 8.25 14.2857 7.85714 14.2857H5ZM10.7143 15.7143H16.4286C16.8214 15.7143 17.1429 15.3929 17.1429 15C17.1429 14.6071 16.8214 14.2857 16.4286 14.2857H10.7143C10.3214 14.2857 10 14.6071 10 15C10 15.3929 10.3214 15.7143 10.7143 15.7143Z" fill="white" fill-opacity="0.1"/>
</svg>
