<svg width="24" height="19" viewBox="0 0 24 19" fill="none" xmlns="http://www.w3.org/2000/svg">
<path d="M10.6667 3.00004C10.6667 3.73754 11.2625 4.33337 12 4.33337C12.7375 4.33337 13.3333 3.73754 13.3333 3.00004V0.333374H16.45C17.5792 0.333374 18.5833 1.04504 18.9625 2.10962L23.8708 15.9667C23.9542 16.2084 24 16.4667 24 16.725C24 17.9792 22.9792 19 21.725 19H13.3333V16.3334C13.3333 15.5959 12.7375 15 12 15C11.2625 15 10.6667 15.5959 10.6667 16.3334V19H2.27542C1.01875 19 0 17.9792 0 16.725C0 16.4667 0.0441667 16.2084 0.130542 15.9667L5.0375 2.10962C5.37917 1.04504 6.42083 0.333374 7.55 0.333374H10.6292L10.6667 3.00004ZM13.3333 8.33337C13.3333 7.59587 12.7375 7.00004 12 7.00004C11.2625 7.00004 10.6667 7.59587 10.6667 8.33337V11C10.6667 11.7375 11.2625 12.3334 12 12.3334C12.7375 12.3334 13.3333 11.7375 13.3333 11V8.33337Z" fill="#02499B"/>
<path d="M10.6667 3.00004C10.6667 3.73754 11.2625 4.33337 12 4.33337C12.7375 4.33337 13.3333 3.73754 13.3333 3.00004V0.333374H16.45C17.5792 0.333374 18.5833 1.04504 18.9625 2.10962L23.8708 15.9667C23.9542 16.2084 24 16.4667 24 16.725C24 17.9792 22.9792 19 21.725 19H13.3333V16.3334C13.3333 15.5959 12.7375 15 12 15C11.2625 15 10.6667 15.5959 10.6667 16.3334V19H2.27542C1.01875 19 0 17.9792 0 16.725C0 16.4667 0.0441667 16.2084 0.130542 15.9667L5.0375 2.10962C5.37917 1.04504 6.42083 0.333374 7.55 0.333374H10.6292L10.6667 3.00004ZM13.3333 8.33337C13.3333 7.59587 12.7375 7.00004 12 7.00004C11.2625 7.00004 10.6667 7.59587 10.6667 8.33337V11C10.6667 11.7375 11.2625 12.3334 12 12.3334C12.7375 12.3334 13.3333 11.7375 13.3333 11V8.33337Z" fill="#3F3D56" fill-opacity="0.4"/>
</svg>
